<?xml version="1.0" encoding="UTF-8" standalone="no"?>
<!-- Created with Inkscape (http://www.inkscape.org/) -->

<svg
   version="1.1"
   id="svg18"
   width="164.85466"
   height="166.364"
   viewBox="0 0 164.85466 166.364"
   sodipodi:docname="5580366.eps"
   xmlns:inkscape="http://www.inkscape.org/namespaces/inkscape"
   xmlns:sodipodi="http://sodipodi.sourceforge.net/DTD/sodipodi-0.dtd"
   xmlns="http://www.w3.org/2000/svg"
   xmlns:svg="http://www.w3.org/2000/svg">
  <defs
     id="defs22">
    <clipPath
       clipPathUnits="userSpaceOnUse"
       id="clipPath2412">
      <path
         d="m 2874.85,4230.27 c -72.41,2.11 -167.12,-25.44 -213.76,-55.12 -46.63,-29.68 -144.14,-65.72 -201.37,-61.61 -12.27,0.88 -22.68,0.89 -31.48,0.39 -27.04,-1.56 -47.91,-23.99 -47.51,-51.08 0.74,-49.97 26.71,-129.26 182.86,-133.59 0,0 89.03,-341.28 108.11,-394.28 19.07,-52.99 98.94,-105.99 203.15,-105.99 v 801.28"
         id="path2410" />
    </clipPath>
    <clipPath
       clipPathUnits="userSpaceOnUse"
       id="clipPath2434">
      <path
         d="m 2874.85,4230.27 c 72.42,2.11 167.12,-25.44 213.76,-55.12 46.63,-29.68 144.14,-65.72 201.38,-61.61 12.26,0.88 22.67,0.89 31.47,0.39 27.05,-1.56 47.92,-23.99 47.52,-51.08 -0.74,-49.97 -26.72,-129.26 -182.87,-133.59 0,0 -89.02,-341.28 -108.1,-394.28 -19.08,-52.99 -98.95,-105.99 -203.16,-105.99 v 801.28"
         id="path2432" />
    </clipPath>
    <clipPath
       clipPathUnits="userSpaceOnUse"
       id="clipPath2484">
      <path
         d="m 2454.83,4547.98 c -13.16,-41.63 -32.34,-65.04 -52.48,-166.57 -20.13,-101.52 169.74,-265.47 201.59,-276.91 27.45,-9.86 117.3,2.95 142.33,62.85 7.02,16.81 2.7,36.23 -10.57,48.72 -29.45,27.71 -90.16,83.52 -126.94,108.24 -49.96,33.58 -104.82,55.69 -100.73,168.7 2.47,68.33 -14.81,106.42 -28.86,125.85 -5.18,7.18 -16.47,3.64 -16.53,-5.2 -0.12,-18.94 -1.57,-45.93 -7.81,-65.68"
         id="path2482" />
    </clipPath>
    <clipPath
       clipPathUnits="userSpaceOnUse"
       id="clipPath2514">
      <path
         d="m 3294.87,4547.98 c 13.16,-41.63 32.35,-65.04 52.48,-166.57 20.13,-101.52 -169.74,-265.47 -201.58,-276.91 -27.46,-9.86 -117.31,2.95 -142.34,62.85 -7.02,16.81 -2.69,36.23 10.58,48.72 29.45,27.71 90.16,83.52 126.94,108.24 49.96,33.58 104.82,55.69 100.73,168.7 -2.48,68.33 14.8,106.42 28.85,125.85 5.18,7.18 16.47,3.64 16.53,-5.2 0.13,-18.94 1.57,-45.93 7.81,-65.68"
         id="path2512" />
    </clipPath>
    <clipPath
       clipPathUnits="userSpaceOnUse"
       id="clipPath2544">
      <path
         d="m 2939.1,4321.36 c -2.29,0 -4.43,1.44 -5.2,3.73 -0.97,2.87 0.57,6 3.44,6.97 41.23,13.95 65.96,44.73 80.78,73.98 14.79,29.2 19.38,56.62 20.2,62.41 l 0.15,1.11 c 0.33,2.8 2.7,4.85 5.45,4.85 0.21,0 0.43,-0.01 0.65,-0.03 3.01,-0.36 5.17,-3.09 4.81,-6.11 -0.05,-0.35 -3.36,-28.59 -18.48,-61.06 -15.07,-32.41 -42.25,-69.38 -90.04,-85.56 -0.58,-0.2 -1.17,-0.29 -1.76,-0.29"
         id="path2542" />
    </clipPath>
  </defs>
  <sodipodi:namedview
     id="namedview20"
     pagecolor="#ffffff"
     bordercolor="#000000"
     borderopacity="0.25"
     inkscape:showpageshadow="2"
     inkscape:pageopacity="0.0"
     inkscape:pagecheckerboard="0"
     inkscape:deskcolor="#d1d1d1"
     showgrid="false"
     inkscape:zoom="1.182"
     inkscape:cx="197.96955"
     inkscape:cy="283.84095"
     inkscape:window-width="1846"
     inkscape:window-height="1016"
     inkscape:window-x="0"
     inkscape:window-y="0"
     inkscape:window-maximized="1"
     inkscape:current-layer="g28" />
  <g
     id="g26"
     inkscape:groupmode="layer"
     inkscape:label="Page 1"
     transform="matrix(1.3333333,0,0,-1.3333333,-302.16666,616.61066)">
    <g
       id="g28"
       transform="scale(0.1)">
      <path
         d="m 3502.66,3996.93 c 0,-341.42 -276.78,-618.2 -618.21,-618.2 -341.42,0 -618.2,276.78 -618.2,618.2 0,341.43 276.78,618.21 618.2,618.21 341.43,0 618.21,-276.78 618.21,-618.21"
         style="fill:#93c6ed;fill-opacity:1;fill-rule:nonzero;stroke:none"
         id="path2378" />
      <path
         d="m 2467.07,3899.46 c -11.33,-4.64 -23.99,-6.47 -36.98,-4.74 -19.24,2.55 -36.33,12.44 -48.13,27.86 -11.79,15.41 -16.88,34.49 -14.32,53.74 2.55,19.24 12.45,36.33 27.86,48.13 15.42,11.79 34.5,16.89 53.73,14.33 9.95,-1.33 19.32,-4.59 27.85,-9.73 2.37,-1.42 3.14,-4.49 1.72,-6.87 -1.43,-2.36 -4.5,-3.13 -6.88,-1.71 -7.35,4.42 -15.43,7.24 -24,8.37 -16.59,2.21 -33.05,-2.18 -46.33,-12.35 -13.29,-10.17 -21.82,-24.91 -24.03,-41.49 -2.2,-16.59 2.19,-33.05 12.36,-46.33 10.17,-13.29 24.91,-21.82 41.49,-24.02 16.59,-2.21 33.05,2.17 46.33,12.35 13.29,10.17 21.82,24.91 24.03,41.49 2.14,16.13 -1.98,32.22 -11.61,45.33 -1.63,2.23 -1.15,5.36 1.08,7 2.23,1.63 5.36,1.15 7,-1.07 11.16,-15.2 15.94,-33.87 13.45,-52.58 -3.55,-26.72 -21.29,-48.15 -44.62,-57.71"
         style="fill:#bcddf5;fill-opacity:1;fill-rule:nonzero;stroke:none"
         id="path2380" />
      <path
         d="m 2467.07,3899.46 -0.71,1.74 c -8.29,-3.4 -17.3,-5.25 -26.63,-5.25 -3.1,0 -6.23,0.21 -9.39,0.63 -18.76,2.49 -35.38,12.11 -46.89,27.14 -9.55,12.48 -14.58,27.41 -14.58,42.87 0,3.14 0.21,6.31 0.63,9.48 2.49,18.76 12.12,35.38 27.14,46.89 12.49,9.55 27.43,14.59 42.88,14.59 3.14,0 6.3,-0.21 9.47,-0.63 9.69,-1.29 18.81,-4.47 27.13,-9.47 0.98,-0.59 1.51,-1.62 1.52,-2.69 l -0.45,-1.61 c -0.59,-0.98 -1.62,-1.52 -2.69,-1.52 l -1.62,0.45 c -7.57,4.55 -15.89,7.46 -24.72,8.62 -2.88,0.39 -5.76,0.58 -8.62,0.58 -14.09,0 -27.73,-4.6 -39.09,-13.3 -13.68,-10.46 -22.48,-25.66 -24.74,-42.74 -0.39,-2.88 -0.58,-5.76 -0.58,-8.63 0,-14.08 4.6,-27.72 13.3,-39.08 10.46,-13.68 25.66,-22.48 42.74,-24.74 2.88,-0.39 5.77,-0.58 8.63,-0.58 14.08,0 27.72,4.6 39.08,13.3 13.68,10.46 22.47,25.66 24.75,42.74 0.38,2.86 0.57,5.73 0.57,8.58 0,13.65 -4.33,26.94 -12.53,38.1 l -0.6,1.84 c 0,0.98 0.44,1.92 1.28,2.53 l 1.85,0.61 c 0.97,0 1.91,-0.44 2.53,-1.27 8.99,-12.25 13.73,-26.8 13.73,-41.77 0,-3.14 -0.21,-6.29 -0.63,-9.45 -3.45,-26.03 -20.74,-46.91 -43.47,-56.22 l 0.71,-1.74 0.71,-1.73 c 23.92,9.79 42.13,31.78 45.77,59.2 0.44,3.32 0.66,6.64 0.66,9.94 0,15.77 -5,31.1 -14.46,43.99 -1.35,1.83 -3.44,2.81 -5.55,2.8 -1.41,0 -2.85,-0.43 -4.07,-1.33 -1.84,-1.35 -2.82,-3.44 -2.81,-5.56 0,-1.4 0.43,-2.84 1.33,-4.06 7.73,-10.52 11.79,-23.02 11.8,-35.88 0,-2.69 -0.18,-5.39 -0.54,-8.09 -2.15,-16.1 -10.41,-30.38 -23.31,-40.25 -10.71,-8.21 -23.53,-12.53 -36.8,-12.53 -2.7,0 -5.42,0.18 -8.14,0.54 -16.1,2.15 -30.38,10.41 -40.25,23.31 -8.21,10.72 -12.53,23.54 -12.53,36.8 0,2.7 0.18,5.42 0.54,8.14 2.15,16.1 10.41,30.38 23.31,40.25 10.71,8.21 23.54,12.52 36.81,12.52 2.69,0 5.41,-0.17 8.13,-0.54 8.33,-1.1 16.15,-3.83 23.28,-8.12 1.11,-0.66 2.34,-0.98 3.55,-0.98 2.33,0 4.61,1.19 5.9,3.34 0.67,1.1 0.99,2.33 0.99,3.54 0,2.33 -1.2,4.62 -3.34,5.9 -8.76,5.27 -18.38,8.62 -28.57,9.98 -3.33,0.44 -6.66,0.66 -9.96,0.66 -16.27,0 -32.03,-5.32 -45.16,-15.37 -15.8,-12.09 -25.97,-29.64 -28.58,-49.37 -0.44,-3.33 -0.66,-6.66 -0.66,-9.97 -0.01,-16.27 5.3,-32.02 15.36,-45.15 12.09,-15.8 29.64,-25.97 49.37,-28.58 3.32,-0.44 6.62,-0.66 9.88,-0.66 9.83,0 19.33,1.95 28.05,5.53 l -0.71,1.73"
         style="fill:#211816;fill-opacity:1;fill-rule:nonzero;stroke:none"
         id="path2382" />
      <path
         d="m 3282.63,3899.46 c 11.34,-4.64 23.99,-6.47 36.99,-4.74 19.23,2.55 36.33,12.44 48.12,27.86 11.8,15.41 16.89,34.49 14.33,53.74 -2.56,19.24 -12.45,36.33 -27.86,48.13 -15.42,11.79 -34.51,16.89 -53.74,14.33 -9.94,-1.33 -19.31,-4.59 -27.85,-9.73 -2.36,-1.42 -3.14,-4.49 -1.71,-6.87 1.43,-2.36 4.5,-3.13 6.87,-1.71 7.36,4.42 15.43,7.24 24.01,8.37 16.59,2.21 33.05,-2.18 46.33,-12.35 13.28,-10.17 21.82,-24.91 24.03,-41.49 2.2,-16.59 -2.19,-33.05 -12.36,-46.33 -10.17,-13.29 -24.91,-21.82 -41.5,-24.02 -16.58,-2.21 -33.04,2.17 -46.33,12.35 -13.28,10.17 -21.81,24.91 -24.02,41.49 -2.14,16.13 1.98,32.22 11.6,45.33 1.64,2.23 1.15,5.36 -1.07,7 -2.23,1.63 -5.37,1.15 -7,-1.07 -11.17,-15.2 -15.95,-33.87 -13.46,-52.58 3.55,-26.72 21.3,-48.15 44.62,-57.71"
         style="fill:#bcddf5;fill-opacity:1;fill-rule:nonzero;stroke:none"
         id="path2384" />
      <path
         d="m 3282.63,3899.46 -0.71,-1.73 c 8.73,-3.58 18.23,-5.53 28.06,-5.53 3.26,0 6.56,0.22 9.88,0.66 19.72,2.61 37.28,12.78 49.37,28.58 10.05,13.12 15.36,28.87 15.36,45.14 0,3.31 -0.22,6.65 -0.66,9.98 -2.62,19.73 -12.79,37.28 -28.58,49.37 -13.14,10.05 -28.89,15.37 -45.16,15.37 -3.31,0 -6.64,-0.22 -9.97,-0.66 -10.19,-1.36 -19.81,-4.71 -28.56,-9.98 -2.15,-1.28 -3.34,-3.57 -3.34,-5.9 0,-1.21 0.32,-2.44 0.98,-3.54 1.29,-2.15 3.57,-3.34 5.91,-3.34 1.2,0 2.43,0.32 3.54,0.98 7.14,4.29 14.96,7.02 23.29,8.12 2.71,0.37 5.43,0.54 8.13,0.54 13.27,0 26.09,-4.31 36.81,-12.52 12.89,-9.87 21.16,-24.15 23.31,-40.25 0.36,-2.72 0.53,-5.43 0.53,-8.13 0,-13.27 -4.32,-26.09 -12.52,-36.81 -9.88,-12.9 -24.15,-21.16 -40.25,-23.31 -2.73,-0.36 -5.45,-0.54 -8.15,-0.54 -13.26,0 -26.08,4.32 -36.8,12.53 -12.89,9.87 -21.15,24.15 -23.3,40.25 -0.36,2.71 -0.54,5.41 -0.54,8.1 0,12.86 4.07,25.35 11.79,35.87 0.9,1.22 1.34,2.66 1.34,4.06 0,2.12 -0.98,4.21 -2.81,5.56 -1.23,0.9 -2.66,1.33 -4.08,1.33 -2.1,0.01 -4.2,-0.97 -5.54,-2.8 v 0 c -9.47,-12.89 -14.47,-28.23 -14.47,-43.99 0,-3.3 0.22,-6.62 0.67,-9.94 3.64,-27.42 21.84,-49.41 45.76,-59.2 l 0.71,1.73 0.71,1.74 c -22.72,9.31 -40.01,30.19 -43.47,56.22 -0.42,3.16 -0.63,6.31 -0.63,9.45 0.01,14.97 4.74,29.52 13.74,41.77 v 0 c 0.61,0.83 1.55,1.27 2.52,1.27 l 1.86,-0.61 c 0.83,-0.61 1.27,-1.55 1.28,-2.53 l -0.61,-1.84 c -8.19,-11.16 -12.52,-24.44 -12.52,-38.09 0,-2.85 0.19,-5.72 0.57,-8.59 2.27,-17.08 11.07,-32.28 24.74,-42.74 11.36,-8.7 25,-13.3 39.08,-13.3 2.87,0 5.75,0.19 8.64,0.58 17.07,2.26 32.27,11.06 42.74,24.74 8.7,11.36 13.3,25.01 13.3,39.09 0,2.86 -0.19,5.74 -0.58,8.62 -2.26,17.08 -11.07,32.28 -24.74,42.74 -11.36,8.7 -25.01,13.3 -39.09,13.3 -2.87,0 -5.75,-0.19 -8.63,-0.58 -8.82,-1.16 -17.15,-4.07 -24.72,-8.62 l -1.61,-0.45 c -1.07,0 -2.1,0.54 -2.69,1.52 l -0.45,1.61 c 0,1.07 0.54,2.1 1.52,2.69 8.32,5 17.43,8.18 27.13,9.47 3.16,0.42 6.33,0.63 9.47,0.63 15.45,0 30.38,-5.04 42.88,-14.59 15.02,-11.51 24.65,-28.13 27.14,-46.89 0.42,-3.18 0.63,-6.34 0.63,-9.49 0,-15.45 -5.04,-30.38 -14.59,-42.86 -11.5,-15.03 -28.13,-24.65 -46.88,-27.14 -3.16,-0.42 -6.3,-0.63 -9.39,-0.63 -9.34,0 -18.34,1.85 -26.64,5.25 l -0.71,-1.74"
         style="fill:#211816;fill-opacity:1;fill-rule:nonzero;stroke:none"
         id="path2386" />
      <path
         d="m 2603.94,3606.63 c 0,-10.6 -8.6,-19.2 -19.2,-19.2 -10.61,0 -19.2,8.6 -19.2,19.2 0,10.6 8.59,19.2 19.2,19.2 10.6,0 19.2,-8.6 19.2,-19.2"
         style="fill:#fbca3b;fill-opacity:1;fill-rule:nonzero;stroke:none"
         id="path2388" />
      <path
         d="m 2603.94,3606.63 h -1.88 c -0.02,-9.57 -7.75,-17.3 -17.32,-17.32 -9.57,0.02 -17.31,7.75 -17.33,17.32 0.02,9.57 7.76,17.31 17.33,17.33 9.57,-0.02 17.3,-7.76 17.32,-17.33 h 1.88 1.87 c 0,11.64 -9.43,21.08 -21.07,21.08 -11.64,0 -21.08,-9.44 -21.08,-21.08 0,-11.64 9.44,-21.07 21.08,-21.07 11.64,0 21.07,9.43 21.07,21.07 h -1.87"
         style="fill:#211816;fill-opacity:1;fill-rule:nonzero;stroke:none"
         id="path2390" />
      <path
         d="m 2421.55,3687.33 c 0,-10.6 -8.59,-19.2 -19.2,-19.2 -10.6,0 -19.19,8.6 -19.19,19.2 0,10.61 8.59,19.2 19.19,19.2 10.61,0 19.2,-8.59 19.2,-19.2"
         style="fill:#fbca3b;fill-opacity:1;fill-rule:nonzero;stroke:none"
         id="path2392" />
      <path
         d="m 2421.55,3687.33 h -1.87 c -0.02,-9.56 -7.76,-17.31 -17.33,-17.32 -9.56,0.01 -17.3,7.76 -17.32,17.32 0.02,9.57 7.76,17.31 17.32,17.32 9.57,-0.01 17.31,-7.75 17.33,-17.32 h 1.87 1.88 c 0,11.64 -9.43,21.07 -21.08,21.08 -11.64,-0.01 -21.07,-9.44 -21.07,-21.08 0,-11.64 9.43,-21.07 21.07,-21.07 11.65,0 21.08,9.43 21.08,21.07 h -1.88"
         style="fill:#211816;fill-opacity:1;fill-rule:nonzero;stroke:none"
         id="path2394" />
      <path
         d="m 3401.92,3796.32 c 0,-10.61 -8.6,-19.21 -19.2,-19.21 -10.61,0 -19.2,8.6 -19.2,19.21 0,10.6 8.59,19.19 19.2,19.19 10.6,0 19.2,-8.59 19.2,-19.19"
         style="fill:#fbca3b;fill-opacity:1;fill-rule:nonzero;stroke:none"
         id="path2396" />
      <path
         d="m 3401.92,3796.32 h -1.88 c -0.02,-9.57 -7.76,-17.32 -17.32,-17.33 -9.57,0.01 -17.31,7.76 -17.33,17.33 0.02,9.56 7.76,17.3 17.33,17.32 9.56,-0.02 17.3,-7.76 17.32,-17.32 h 1.88 1.87 c 0,11.63 -9.44,21.07 -21.07,21.07 -11.65,0 -21.08,-9.44 -21.08,-21.07 0,-11.65 9.43,-21.08 21.08,-21.08 11.63,0 21.07,9.43 21.07,21.08 h -1.87"
         style="fill:#211816;fill-opacity:1;fill-rule:nonzero;stroke:none"
         id="path2398" />
      <path
         d="m 2474.3,3812.17 c -1.68,-0.47 -1.68,-2.85 0,-3.33 6.57,-1.87 16.42,-5.25 20.87,-9.7 4.42,-4.43 7.76,-14.19 9.63,-20.76 0.47,-1.68 2.85,-1.69 3.33,-0.01 1.87,6.57 5.24,16.33 9.66,20.75 4.43,4.41 14.19,7.76 20.76,9.62 1.69,0.48 1.69,2.85 0.01,3.33 -6.57,1.88 -16.33,5.24 -20.75,9.67 -4.45,4.45 -7.81,14.09 -9.66,20.49 -0.48,1.66 -2.84,1.65 -3.33,-0.01 -2.03,-6.95 -5.59,-17.69 -9.01,-21.08 -3.48,-3.45 -14.4,-6.96 -21.51,-8.97"
         style="fill:#fbca3b;fill-opacity:1;fill-rule:nonzero;stroke:none"
         id="path2400" />
      <path
         d="m 2474.3,3812.17 -0.51,1.8 c -1.69,-0.45 -2.66,-2.04 -2.63,-3.46 -0.03,-1.42 0.94,-3.01 2.62,-3.47 6.45,-1.79 16.24,-5.3 20.07,-9.23 3.88,-3.8 7.35,-13.49 9.14,-19.95 0.46,-1.68 2.05,-2.66 3.47,-2.62 1.42,-0.04 3.01,0.93 3.47,2.62 1.8,6.45 5.29,16.13 9.18,19.93 3.81,3.89 13.5,7.36 19.95,9.14 1.69,0.46 2.67,2.05 2.63,3.47 0.04,1.43 -0.93,3.01 -2.62,3.47 -6.45,1.8 -16.14,5.29 -19.93,9.19 -3.94,3.85 -7.41,13.41 -9.19,19.69 v 0 c -0.46,1.67 -2.05,2.64 -3.46,2.6 -1.42,0.03 -2.99,-0.92 -3.47,-2.6 -1,-3.45 -2.39,-7.83 -3.93,-11.72 -1.5,-3.87 -3.3,-7.32 -4.6,-8.56 -1.28,-1.32 -4.8,-3.11 -8.75,-4.6 -3.97,-1.53 -8.43,-2.9 -11.95,-3.9 l 0.51,-1.8 0.51,-1.8 c 3.59,1.01 8.14,2.4 12.28,4 4.16,1.62 7.84,3.31 10.04,5.44 2.12,2.15 3.82,5.77 5.45,9.85 1.61,4.06 3.01,8.52 4.04,12.04 l -0.13,0.03 v -0.13 l 0.13,0.1 -0.13,0.03 v -0.13 0.15 l -0.15,-0.04 0.15,-0.11 v 0.15 l -0.15,-0.04 v 0 c 1.94,-6.52 5.18,-16.24 10.15,-21.3 5.03,-4.95 14.86,-8.19 21.55,-10.14 l 0.04,0.13 h -0.14 l 0.1,-0.13 0.04,0.13 h -0.14 0.14 l -0.04,0.14 -0.1,-0.14 h 0.14 l -0.04,0.14 c -6.69,-1.94 -16.52,-5.15 -21.57,-10.09 -4.96,-5.05 -8.19,-14.87 -10.15,-21.56 l 0.14,-0.04 v 0.14 l -0.14,-0.1 0.14,-0.04 v 0.14 -0.14 l 0.14,0.03 -0.14,0.11 v -0.14 l 0.14,0.03 c -1.94,6.7 -5.16,16.54 -10.1,21.58 -5.07,4.99 -15,8.24 -21.69,10.18 l -0.04,-0.13 h 0.14 l -0.1,0.13 -0.04,-0.13 h 0.14 -0.14 l 0.04,-0.15 0.1,0.15 h -0.14 l 0.04,-0.15 -0.51,1.81"
         style="fill:#211816;fill-opacity:1;fill-rule:nonzero;stroke:none"
         id="path2402" />
      <path
         d="m 2874.86,4230.27 c -72.42,2.11 -167.13,-25.44 -213.76,-55.12 -46.64,-29.68 -144.15,-65.72 -201.38,-61.61 -12.27,0.88 -22.68,0.89 -31.48,0.39 -27.04,-1.56 -47.91,-23.99 -47.51,-51.08 0.74,-49.97 26.71,-129.26 182.86,-133.6 0,0 89.03,-341.27 108.11,-394.27 19.07,-53 98.94,-105.99 203.16,-105.99"
         style="fill:#fab50a;fill-opacity:1;fill-rule:nonzero;stroke:none"
         id="path2404" />
      <g
         id="g2406">
        <g
           id="g2408"
           clip-path="url(#clipPath2412)">
          <path
             d="m 2542.68,3874.25 c 0,0 69.05,22.5 94.21,76.21 0,0 -43.1,-21.94 -86.83,-21.22 -43.74,0.72 0,0 0,0 l -7.38,-54.99"
             style="fill:#211816;fill-opacity:1;fill-rule:nonzero;stroke:none"
             id="path2414" />
          <path
             d="m 2366.99,4089.8 c 0,0 43.6,-131.01 167.9,-158.78 124.3,-27.77 0,0 0,0 l -122.27,-1.78 c 0,0 -52.13,100.56 -45.63,160.56"
             style="fill:#f9a80d;fill-opacity:1;fill-rule:nonzero;stroke:none"
             id="path2416" />
        </g>
      </g>
      <path
         d="m 2874.91,4232.14 c -2.64,0.08 -5.32,0.11 -8.01,0.11 -71.73,-0.03 -161.39,-26.66 -206.81,-55.52 -43.79,-27.92 -133.66,-61.69 -191,-61.64 -3.19,0 -6.27,0.11 -9.24,0.32 -7.1,0.51 -13.58,0.73 -19.51,0.73 -4.37,0 -8.43,-0.12 -12.2,-0.34 -27.78,-1.6 -49.3,-24.45 -49.29,-52.19 v -0.79 0 c 0.37,-25.28 7.15,-58.14 33.69,-85.2 26.55,-27.05 72.63,-48.07 151,-50.24 l 0.05,1.87 -1.81,-0.47 c 0.01,-0.05 88.99,-341.18 108.15,-394.44 19.59,-54.1 100.09,-107.16 204.93,-107.22 1.03,0 1.87,0.84 1.87,1.87 0,1.04 -0.84,1.88 -1.87,1.88 -103.6,-0.07 -182.84,52.85 -201.4,104.74 -9.47,26.3 -36.53,124.96 -61.16,216.87 -12.32,45.96 -24.04,90.28 -32.69,123.1 -4.32,16.41 -7.87,29.95 -10.34,39.38 -2.47,9.44 -3.86,14.75 -3.87,14.77 l -1.76,1.4 c -77.78,2.17 -122.75,22.96 -148.42,49.12 -25.67,26.16 -32.25,57.93 -32.62,82.63 v 0 0.73 c 0,25.76 19.95,46.95 45.75,48.44 3.7,0.22 7.69,0.34 11.99,0.34 5.83,0 12.23,-0.22 19.24,-0.72 3.07,-0.22 6.24,-0.33 9.51,-0.33 58.67,0.06 148.45,33.92 193.01,62.23 44.47,28.34 134,54.97 204.8,54.93 2.66,0 5.29,-0.03 7.9,-0.11 1.04,-0.03 1.9,0.79 1.93,1.82 0.03,1.04 -0.78,1.9 -1.82,1.93"
         style="fill:#211816;fill-opacity:1;fill-rule:nonzero;stroke:none"
         id="path2418" />
      <path
         d="m 2563.52,3927.38 1.26,-0.02 c 7.06,0.01 42.68,1.29 80.54,26.11 l 0.54,2.59 -2.6,0.54 c -36.97,-24.25 -71.86,-25.49 -78.48,-25.49 l -1.11,0.02 c -1.04,0.04 -1.91,-0.77 -1.95,-1.8 -0.04,-1.04 0.76,-1.91 1.8,-1.95"
         style="fill:#211816;fill-opacity:1;fill-rule:nonzero;stroke:none"
         id="path2420" />
      <path
         d="m 2744.5,3679.23 c -4.48,-26.01 -29.19,-43.46 -55.2,-38.99 -26,4.48 -43.46,29.19 -38.99,55.2 4.48,26 29.19,43.46 55.2,38.98 26.01,-4.47 43.46,-29.18 38.99,-55.19"
         style="fill:#f8a00e;fill-opacity:1;fill-rule:nonzero;stroke:none"
         id="path2422" />
      <path
         d="m 2755.87,3820.24 28.84,-25.51 c 1.56,-1.38 3.93,-1.23 5.3,0.32 1.37,1.55 1.23,3.92 -0.33,5.3 l -28.84,25.51 c -1.55,1.37 -3.92,1.23 -5.29,-0.33 -1.38,-1.55 -1.23,-3.92 0.32,-5.29"
         style="fill:#211816;fill-opacity:1;fill-rule:nonzero;stroke:none"
         id="path2424" />
      <path
         d="m 2874.86,4230.27 c 72.41,2.11 167.11,-25.44 213.75,-55.12 46.63,-29.68 144.14,-65.72 201.38,-61.61 12.26,0.88 22.67,0.89 31.47,0.39 27.05,-1.56 47.92,-23.99 47.52,-51.08 -0.74,-49.97 -26.72,-129.26 -182.87,-133.6 0,0 -89.02,-341.27 -108.1,-394.27 -19.08,-53 -98.95,-105.99 -203.15,-105.99"
         style="fill:#fab50a;fill-opacity:1;fill-rule:nonzero;stroke:none"
         id="path2426" />
      <g
         id="g2428">
        <g
           id="g2430"
           clip-path="url(#clipPath2434)">
          <path
             d="m 3207.03,3874.25 c 0,0 -69.05,22.5 -94.21,76.21 0,0 43.09,-21.94 86.83,-21.22 43.73,0.72 0,0 0,0 l 7.38,-54.99"
             style="fill:#211816;fill-opacity:1;fill-rule:nonzero;stroke:none"
             id="path2436" />
        </g>
      </g>
      <path
         d="m 2874.91,4228.39 c 2.6,0.08 5.24,0.11 7.9,0.11 70.79,0.04 160.32,-26.59 204.79,-54.93 44.57,-28.31 134.35,-62.17 193.01,-62.23 3.27,0 6.44,0.11 9.51,0.33 7.01,0.5 13.41,0.72 19.24,0.72 4.3,0 8.29,-0.12 11.99,-0.34 25.81,-1.49 45.75,-22.68 45.76,-48.44 l -0.01,-0.73 v 0 c -0.37,-24.7 -6.95,-56.47 -32.61,-82.63 -25.67,-26.16 -70.65,-46.95 -148.43,-49.12 l -1.76,-1.4 c 0,-0.02 -1.39,-5.33 -3.86,-14.77 -17.29,-65.99 -87.58,-333.23 -104.2,-379.35 -18.56,-51.89 -97.8,-104.81 -201.38,-104.74 -1.04,0 -1.88,-0.84 -1.88,-1.88 0,-1.03 0.84,-1.87 1.88,-1.87 104.83,0.06 185.32,53.12 204.91,107.22 19.17,53.26 108.14,394.39 108.16,394.44 l -1.82,0.47 0.06,-1.87 c 78.36,2.17 124.45,23.19 150.99,50.24 26.55,27.06 33.33,59.92 33.69,85.2 v 0 l 0.01,0.79 c 0,27.74 -21.51,50.59 -49.29,52.19 -3.78,0.22 -7.84,0.34 -12.21,0.34 -5.92,0 -12.41,-0.22 -19.51,-0.73 -2.97,-0.21 -6.05,-0.32 -9.24,-0.32 -57.33,-0.05 -147.21,33.72 -190.99,61.64 -45.43,28.86 -135.09,55.49 -206.81,55.52 -2.69,0 -5.37,-0.03 -8.01,-0.11 -1.04,-0.03 -1.85,-0.89 -1.82,-1.93 0.03,-1.03 0.89,-1.85 1.93,-1.82"
         style="fill:#211816;fill-opacity:1;fill-rule:nonzero;stroke:none"
         id="path2438" />
      <path
         d="m 3186.04,3931.13 -1.12,-0.02 c -6.61,0 -41.5,1.24 -78.47,25.49 l -2.6,-0.54 0.54,-2.59 c 37.85,-24.82 73.47,-26.1 80.53,-26.11 l 1.27,0.02 c 1.03,0.04 1.84,0.91 1.8,1.95 -0.04,1.03 -0.92,1.84 -1.95,1.8"
         style="fill:#211816;fill-opacity:1;fill-rule:nonzero;stroke:none"
         id="path2440" />
      <path
         d="m 3099.39,3679.23 c -4.48,-26.01 -29.19,-43.46 -55.19,-38.99 -26.01,4.48 -43.47,29.19 -38.99,55.2 4.47,26 29.19,43.46 55.19,38.98 26.01,-4.47 43.46,-29.18 38.99,-55.19"
         style="fill:#f8a00e;fill-opacity:1;fill-rule:nonzero;stroke:none"
         id="path2442" />
      <path
         d="m 2988.86,3825.86 -28.84,-25.51 c -1.55,-1.38 -1.7,-3.75 -0.32,-5.3 1.37,-1.55 3.74,-1.7 5.29,-0.32 l 28.84,25.51 c 1.56,1.37 1.7,3.74 0.33,5.29 -1.37,1.56 -3.74,1.7 -5.3,0.33"
         style="fill:#211816;fill-opacity:1;fill-rule:nonzero;stroke:none"
         id="path2444" />
      <path
         d="m 2790.27,3742.1 c 0,-10.36 -8.38,-18.75 -18.74,-18.75 -10.35,0 -18.75,8.39 -18.75,18.75 0,10.35 8.4,18.74 18.75,18.74 10.36,0 18.74,-8.39 18.74,-18.74"
         style="fill:#211816;fill-opacity:1;fill-rule:nonzero;stroke:none"
         id="path2446" />
      <path
         d="m 2959.02,3742.1 c 0,-10.36 8.39,-18.75 18.75,-18.75 10.35,0 18.74,8.39 18.74,18.75 0,10.35 -8.39,18.74 -18.74,18.74 -10.36,0 -18.75,-8.39 -18.75,-18.74"
         style="fill:#211816;fill-opacity:1;fill-rule:nonzero;stroke:none"
         id="path2448" />
      <path
         d="m 3251.05,3777.11 c 0,-10.6 -8.59,-19.2 -19.2,-19.2 -10.6,0 -19.2,8.6 -19.2,19.2 0,10.61 8.6,19.21 19.2,19.21 10.61,0 19.2,-8.6 19.2,-19.21"
         style="fill:#fbca3b;fill-opacity:1;fill-rule:nonzero;stroke:none"
         id="path2450" />
      <path
         d="m 3251.05,3777.11 h -1.87 c -0.02,-9.56 -7.76,-17.31 -17.33,-17.32 -9.56,0.01 -17.3,7.76 -17.32,17.32 0.02,9.57 7.76,17.31 17.32,17.33 9.57,-0.02 17.31,-7.76 17.33,-17.33 h 1.87 1.88 c 0,11.64 -9.44,21.08 -21.08,21.08 -11.64,0 -21.07,-9.44 -21.07,-21.08 0,-11.64 9.43,-21.07 21.07,-21.07 11.64,0 21.08,9.43 21.08,21.07 h -1.88"
         style="fill:#211816;fill-opacity:1;fill-rule:nonzero;stroke:none"
         id="path2452" />
      <path
         d="m 3177.34,3628.85 c -1.68,-0.48 -1.68,-2.86 0,-3.34 6.57,-1.86 16.43,-5.24 20.87,-9.7 4.42,-4.42 7.76,-14.19 9.62,-20.76 0.48,-1.68 2.86,-1.68 3.34,0 1.87,6.57 5.24,16.32 9.66,20.74 4.43,4.42 14.19,7.76 20.76,9.63 1.69,0.47 1.69,2.85 0.01,3.33 -6.57,1.87 -16.33,5.24 -20.74,9.66 -4.46,4.46 -7.82,14.1 -9.67,20.49 -0.48,1.67 -2.84,1.66 -3.33,0 -2.03,-6.96 -5.58,-17.69 -9.01,-21.09 -3.48,-3.44 -14.4,-6.95 -21.51,-8.96"
         style="fill:#fbca3b;fill-opacity:1;fill-rule:nonzero;stroke:none"
         id="path2454" />
      <path
         d="m 3177.34,3628.85 -0.51,1.8 c -1.69,-0.46 -2.66,-2.05 -2.62,-3.47 -0.04,-1.42 0.93,-3.01 2.62,-3.47 6.44,-1.79 16.23,-5.29 20.06,-9.22 3.88,-3.8 7.36,-13.5 9.14,-19.95 0.46,-1.69 2.05,-2.66 3.47,-2.63 1.42,-0.03 3.01,0.94 3.47,2.62 1.8,6.45 5.29,16.14 9.19,19.94 3.8,3.88 13.49,7.35 19.95,9.14 1.68,0.46 2.66,2.05 2.62,3.47 0.04,1.42 -0.93,3.01 -2.62,3.47 -6.44,1.8 -16.13,5.29 -19.93,9.18 -3.93,3.86 -7.41,13.42 -9.19,19.7 v -0.01 c -0.46,1.68 -2.05,2.64 -3.46,2.61 -1.42,0.03 -2.99,-0.93 -3.47,-2.61 -1.01,-3.44 -2.39,-7.82 -3.93,-11.71 -1.5,-3.88 -3.29,-7.32 -4.6,-8.56 -1.28,-1.32 -4.79,-3.11 -8.75,-4.61 -3.96,-1.52 -8.43,-2.89 -11.95,-3.89 l 0.51,-1.8 0.51,-1.81 c 3.59,1.02 8.14,2.41 12.28,4 4.16,1.62 7.85,3.32 10.04,5.44 2.12,2.15 3.82,5.77 5.45,9.85 1.61,4.07 3.01,8.53 4.04,12.04 l -0.13,0.04 v -0.14 l 0.13,0.1 -0.13,0.04 v -0.14 0.16 l -0.14,-0.04 0.14,-0.12 v 0.16 l -0.14,-0.04 v -0.01 c 1.93,-6.51 5.17,-16.23 10.14,-21.3 5.03,-4.95 14.86,-8.18 21.55,-10.14 l 0.04,0.14 h -0.14 l 0.1,-0.14 0.04,0.14 h -0.14 0.14 l -0.03,0.14 -0.11,-0.14 h 0.14 l -0.03,0.14 c -6.7,-1.94 -16.53,-5.16 -21.58,-10.1 -4.95,-5.04 -8.19,-14.87 -10.14,-21.55 v 0 l 0.13,-0.04 v 0.13 l -0.13,-0.09 0.13,-0.04 v 0.13 -0.13 l 0.14,0.03 -0.14,0.1 v -0.13 l 0.14,0.03 c -1.94,6.7 -5.16,16.53 -10.1,21.58 -5.07,4.99 -15,8.24 -21.69,10.18 l -0.03,-0.14 h 0.14 l -0.11,0.14 -0.03,-0.14 h 0.14 -0.15 l 0.04,-0.13 0.11,0.13 h -0.15 l 0.04,-0.13 -0.51,1.8"
         style="fill:#211816;fill-opacity:1;fill-rule:nonzero;stroke:none"
         id="path2456" />
      <path
         d="m 3026.72,3529.9 c -1.26,11.07 -4.63,22.45 -11.36,33.11 -26.9,42.63 -140.5,43.62 -140.5,43.62 0,0 -113.62,-0.99 -140.52,-43.62 -6.73,-10.66 -10.09,-22.04 -11.35,-33.11 -4.12,-36.14 15.66,-70.92 48.07,-87.44 24.47,-12.47 60.13,-21.44 103.8,-21.44 43.66,0 79.32,8.97 103.78,21.44 32.42,16.52 52.19,51.3 48.08,87.44"
         style="fill:#fde18e;fill-opacity:1;fill-rule:nonzero;stroke:none"
         id="path2458" />
      <path
         d="m 3026.72,3529.9 1.86,0.21 c -1.29,11.3 -4.73,22.97 -11.63,33.9 -14.19,22.25 -49.69,32.97 -81.6,38.65 -31.94,5.6 -60.42,5.85 -60.48,5.85 h -0.03 c -0.06,0 -28.54,-0.25 -60.48,-5.85 -31.92,-5.68 -67.41,-16.4 -81.6,-38.65 -6.91,-10.93 -10.34,-22.6 -11.63,-33.9 -0.37,-3.25 -0.56,-6.49 -0.56,-9.71 0.01,-33.36 19.47,-64.23 49.64,-79.61 24.8,-12.64 60.72,-21.64 104.65,-21.65 43.92,0.01 79.84,9.01 104.64,21.65 30.17,15.38 49.62,46.25 49.63,79.61 0,3.22 -0.18,6.46 -0.55,9.71 l -1.86,-0.21 -1.87,-0.21 c 0.36,-3.11 0.53,-6.21 0.53,-9.29 0,-31.88 -18.64,-61.52 -47.59,-76.27 -24.14,-12.31 -59.53,-21.24 -102.93,-21.24 -43.41,0 -78.81,8.93 -102.95,21.24 -28.95,14.75 -47.59,44.39 -47.58,76.27 0,3.08 0.17,6.18 0.52,9.29 1.24,10.85 4.52,21.93 11.08,32.32 12.71,20.38 47.47,31.47 79.08,36.95 15.79,2.77 30.78,4.23 41.8,4.98 11.02,0.76 18.04,0.81 18.06,0.82 l -0.01,1.87 -0.02,-1.87 c 0.02,0 7.03,-0.06 18.06,-0.82 16.53,-1.13 41.98,-3.83 65.7,-10.2 23.74,-6.34 45.62,-16.48 55.18,-31.73 6.55,-10.39 9.84,-21.48 11.07,-32.32 l 1.87,0.21"
         style="fill:#211816;fill-opacity:1;fill-rule:nonzero;stroke:none"
         id="path2460" />
      <path
         d="m 2827.77,3537.53 c 0,-10.36 -8.39,-18.75 -18.75,-18.75 -10.35,0 -18.75,8.39 -18.75,18.75 0,10.35 8.4,18.74 18.75,18.74 10.36,0 18.75,-8.39 18.75,-18.74"
         style="fill:#211816;fill-opacity:1;fill-rule:nonzero;stroke:none"
         id="path2462" />
      <path
         d="m 2825.34,3546.75 c -5.09,9.01 -16.52,12.19 -25.54,7.1 -9.01,-5.1 -12.19,-16.53 -7.1,-25.54 5.09,-9.02 16.53,-12.19 25.54,-7.1 9.02,5.09 12.2,16.53 7.1,25.54"
         style="fill:#211816;fill-opacity:1;fill-rule:nonzero;stroke:none"
         id="path2464" />
      <path
         d="m 2809.02,3518.78 c -10.35,0 -18.75,8.39 -18.75,18.75 0,10.35 8.4,18.74 18.75,18.74 10.36,0 18.75,-8.39 18.75,-18.74 0,-10.36 -8.39,-18.75 -18.75,-18.75"
         style="fill:#211816;fill-opacity:1;fill-rule:nonzero;stroke:none"
         id="path2466" />
      <path
         d="m 2940.69,3518.78 c 10.35,0 18.74,8.39 18.74,18.75 0,10.35 -8.39,18.74 -18.74,18.74 -10.36,0 -18.75,-8.39 -18.75,-18.74 0,-10.36 8.39,-18.75 18.75,-18.75"
         style="fill:#211816;fill-opacity:1;fill-rule:nonzero;stroke:none"
         id="path2468" />
      <path
         d="m 2874.86,3378.73 c -50.69,0 -91.93,41.24 -91.93,91.93 0,24.55 9.56,47.63 26.93,64.99 2.2,2.2 5.77,2.2 7.97,0 2.21,-2.2 2.21,-5.78 0,-7.98 -15.23,-15.23 -23.61,-35.48 -23.61,-57.01 0,-44.47 36.17,-80.64 80.64,-80.64 44.46,0 80.63,36.17 80.63,80.64 0,21.65 -8.46,41.97 -23.83,57.23 -2.21,2.19 -2.22,5.76 -0.03,7.98 2.19,2.21 5.76,2.22 7.98,0.03 17.52,-17.39 27.16,-40.57 27.16,-65.24 0,-50.69 -41.23,-91.93 -91.91,-91.93"
         style="fill:#fab50a;fill-opacity:1;fill-rule:nonzero;stroke:none"
         id="path2470" />
      <path
         d="m 2874.86,3378.73 v 1.88 c -24.83,0 -47.33,10.1 -63.65,26.41 -16.3,16.31 -26.4,38.81 -26.4,63.64 0.01,24.06 9.36,46.64 26.37,63.66 0.74,0.74 1.69,1.1 2.66,1.1 0.97,0 1.93,-0.36 2.66,-1.1 0.74,-0.74 1.1,-1.69 1.1,-2.66 0,-0.97 -0.36,-1.92 -1.1,-2.66 -15.58,-15.57 -24.17,-36.32 -24.17,-58.34 0.01,-45.51 37.02,-82.52 82.53,-82.52 45.5,0 82.51,37.01 82.51,82.52 0,22.14 -8.67,42.96 -24.38,58.56 -0.75,0.74 -1.11,1.7 -1.12,2.67 0.01,0.97 0.36,1.91 1.1,2.65 0.74,0.75 1.69,1.11 2.66,1.11 0.97,0 1.91,-0.36 2.65,-1.09 17.17,-17.04 26.61,-39.72 26.61,-63.9 0,-24.83 -10.09,-47.33 -26.4,-63.64 -16.31,-16.31 -38.81,-26.41 -63.63,-26.41 v -1.88 -1.88 c 51.72,0.01 93.79,42.08 93.79,93.81 0.01,25.17 -9.85,48.84 -27.72,66.57 -1.46,1.45 -3.39,2.19 -5.3,2.18 -1.92,0.01 -3.87,-0.74 -5.33,-2.22 -1.46,-1.46 -2.19,-3.39 -2.19,-5.3 0,-1.93 0.75,-3.87 2.23,-5.34 15.01,-14.91 23.27,-34.73 23.27,-55.89 0,-21.72 -8.83,-41.4 -23.09,-55.67 -14.27,-14.26 -33.95,-23.09 -55.66,-23.09 -21.72,0 -41.4,8.83 -55.67,23.09 -14.27,14.27 -23.09,33.95 -23.09,55.67 0,21.04 8.18,40.8 23.06,55.68 1.47,1.47 2.21,3.4 2.21,5.32 0,1.92 -0.74,3.86 -2.21,5.32 -1.46,1.47 -3.4,2.21 -5.32,2.2 -1.91,0.01 -3.85,-0.73 -5.31,-2.2 -17.72,-17.71 -27.48,-41.28 -27.48,-66.32 0,-51.73 42.07,-93.8 93.81,-93.81 v 1.88"
         style="fill:#211816;fill-opacity:1;fill-rule:nonzero;stroke:none"
         id="path2472" />
      <path
         d="m 2603.94,4104.5 c 0,0 85.05,-25.58 135.44,34.8 33.96,40.72 5.82,63.81 5.82,63.81 l -141.26,-98.61"
         style="fill:#211816;fill-opacity:1;fill-rule:nonzero;stroke:none"
         id="path2474" />
      <path
         d="m 2454.83,4547.98 c -13.16,-41.63 -32.34,-65.04 -52.48,-166.57 -20.13,-101.52 169.74,-265.47 201.59,-276.91 27.45,-9.86 117.3,2.95 142.33,62.85 7.02,16.81 2.7,36.23 -10.57,48.72 -29.45,27.71 -90.16,83.52 -126.94,108.24 -49.96,33.58 -104.82,55.69 -100.73,168.7 2.47,68.33 -14.81,106.42 -28.86,125.85 -5.18,7.18 -16.47,3.64 -16.53,-5.21 -0.12,-18.93 -1.56,-45.92 -7.81,-65.67"
         style="fill:#fef5d5;fill-opacity:1;fill-rule:nonzero;stroke:none"
         id="path2476" />
      <g
         id="g2478">
        <g
           id="g2480"
           clip-path="url(#clipPath2484)">
          <path
             d="m 2523.66,4129.2 c 45.36,-13.01 94.99,-7.82 136.52,14.73 38.07,20.68 71.33,58.74 69.68,104.28 -0.26,7.22 -11.51,7.25 -11.25,0 1.55,-42.85 -31.05,-77.45 -66.94,-96.07 -38.34,-19.89 -83.61,-23.97 -125.02,-12.09 -6.97,1.99 -9.95,-8.86 -2.99,-10.85"
             style="fill:#fcd36a;fill-opacity:1;fill-rule:nonzero;stroke:none"
             id="path2486" />
          <path
             d="m 2471.77,4167.69 c 47.22,-5.21 95.2,3.51 137.8,24.49 39.59,19.51 85.44,53.27 95.07,98.96 1.49,7.06 -9.36,10.08 -10.85,2.99 -9.26,-43.93 -54.99,-75.7 -93.14,-93.8 -40.07,-19.01 -84.87,-26.24 -128.88,-21.39 -7.19,0.79 -7.13,-10.47 0,-11.25"
             style="fill:#fcd36a;fill-opacity:1;fill-rule:nonzero;stroke:none"
             id="path2488" />
          <path
             d="m 2433.8,4236.3 c 87.09,-24.61 180,9.8 230.25,84.88 4.04,6.03 -5.7,11.67 -9.72,5.68 -47.47,-70.95 -135.44,-102.91 -217.54,-79.7 -6.97,1.97 -9.96,-8.89 -2.99,-10.86"
             style="fill:#fcd36a;fill-opacity:1;fill-rule:nonzero;stroke:none"
             id="path2490" />
          <path
             d="m 2392.04,4296.04 c 92.42,-22.24 193.61,9.19 256.8,80.32 4.79,5.4 -3.14,13.39 -7.95,7.96 -60.55,-68.14 -157.16,-98.78 -245.86,-77.43 -7.04,1.7 -10.04,-9.16 -2.99,-10.85"
             style="fill:#fcd36a;fill-opacity:1;fill-rule:nonzero;stroke:none"
             id="path2492" />
          <path
             d="m 2354.72,4375.48 c 50.55,-8.15 101.38,-10.36 150.64,5.78 43.65,14.3 82.86,40.08 113.33,74.41 4.79,5.4 -3.14,13.39 -7.96,7.96 -29.19,-32.91 -66.5,-57.8 -108.36,-71.52 -47.34,-15.51 -96.05,-13.62 -144.66,-5.79 -7.08,1.15 -10.13,-9.69 -2.99,-10.84"
             style="fill:#fcd36a;fill-opacity:1;fill-rule:nonzero;stroke:none"
             id="path2494" />
          <path
             d="m 2384.82,4448.49 c 38.88,-11.84 80.14,-14.25 120.1,-6.62 32.45,6.2 69.01,18.95 84.93,50.36 3.26,6.44 -6.45,12.14 -9.72,5.68 -15.13,-29.87 -51.07,-40.46 -81.74,-45.83 -36.88,-6.48 -74.83,-3.63 -110.58,7.26 -6.94,2.12 -9.91,-8.74 -2.99,-10.85"
             style="fill:#fcd36a;fill-opacity:1;fill-rule:nonzero;stroke:none"
             id="path2496" />
          <path
             d="m 2408.4,4529.16 c 24.55,-18.12 55.64,-26.5 86.01,-24.16 14.61,1.13 28.91,4.61 42.32,10.54 9.76,4.32 31.61,14.66 21.34,28.58 -4.25,5.77 -14.02,0.16 -9.71,-5.68 4.41,-5.98 -26.96,-16.87 -31.12,-18.05 -11.63,-3.31 -23.67,-4.77 -35.75,-4.48 -24.32,0.57 -47.84,8.52 -67.41,22.96 -5.83,4.31 -11.45,-5.46 -5.68,-9.71"
             style="fill:#fcd36a;fill-opacity:1;fill-rule:nonzero;stroke:none"
             id="path2498" />
          <path
             d="m 2436.49,4581.79 c 14.87,-10.28 33.7,-12.49 51.11,-8.68 8.78,1.92 17.26,5.4 25.11,9.74 7.34,4.06 14.4,8.81 17.15,17.11 2.28,6.89 -8.58,9.84 -10.85,2.99 -1.94,-5.85 -9.5,-9.15 -14.56,-11.76 -6.71,-3.47 -13.84,-6.06 -21.27,-7.53 -14.2,-2.81 -29.03,-0.44 -41.02,7.85 -5.97,4.13 -11.6,-5.62 -5.67,-9.72"
             style="fill:#fcd36a;fill-opacity:1;fill-rule:nonzero;stroke:none"
             id="path2500" />
        </g>
      </g>
      <path
         d="m 2454.83,4547.98 -1.79,0.57 c -13.02,-41.26 -32.37,-65.1 -52.52,-166.77 -1.04,-5.22 -1.53,-10.59 -1.53,-16.08 0.1,-51.97 43.61,-114.6 90.68,-165.99 23.56,-25.67 48.05,-48.48 68.58,-65.58 20.58,-17.11 36.93,-28.43 45.05,-31.4 5.73,-2.05 13.7,-3.1 23.1,-3.1 38.29,0.05 100.86,17.73 121.6,67 2.35,5.61 3.48,11.51 3.48,17.36 0,12.41 -5.1,24.6 -14.49,33.44 -29.5,27.75 -90.17,83.55 -127.19,108.44 -24.21,16.26 -49.26,29.72 -68.16,51.73 -18.9,22.01 -31.93,52.59 -31.95,103.75 0,3.75 0.07,7.61 0.21,11.59 0.16,4.47 0.24,8.82 0.24,13.04 0.01,60.56 -16.07,95.48 -29.45,113.98 v 0 c -2.25,3.14 -5.64,4.63 -8.88,4.62 -5.52,0.02 -11,-4.23 -11.04,-10.91 v 0 c -0.12,-18.85 -1.59,-45.75 -7.73,-65.12 l 1.79,-0.57 1.79,-0.57 c 6.35,20.13 7.76,47.2 7.9,66.23 v 0 c 0.03,4.48 3.56,7.15 7.29,7.18 2.16,-0.01 4.27,-0.9 5.84,-3.05 v 0 c 12.89,-17.85 28.73,-51.88 28.74,-111.79 0,-4.18 -0.08,-8.48 -0.24,-12.9 -0.14,-4.02 -0.21,-7.93 -0.21,-11.73 -0.02,-51.76 13.32,-83.51 32.85,-106.19 19.52,-22.68 44.94,-36.27 68.92,-52.4 36.55,-24.56 97.29,-80.38 126.7,-108.06 8.64,-8.13 13.32,-19.32 13.32,-30.71 0,-5.36 -1.04,-10.77 -3.19,-15.92 -19.47,-46.97 -80.78,-64.75 -118.14,-64.69 -9.1,-0.01 -16.76,1.06 -21.83,2.89 -7,2.46 -23.59,13.77 -43.92,30.74 -30.59,25.48 -70.16,63.85 -102.02,105.29 -31.89,41.43 -55.94,86 -55.89,123.4 0,5.26 0.47,10.39 1.45,15.35 20.12,101.37 39.13,124.36 52.43,166.36 l -1.79,0.57"
         style="fill:#211816;fill-opacity:1;fill-rule:nonzero;stroke:none"
         id="path2502" />
      <path
         d="m 3145.77,4104.5 c 0,0 -85.06,-25.58 -135.44,34.8 -33.97,40.72 -5.82,63.81 -5.82,63.81 l 141.26,-98.61"
         style="fill:#211816;fill-opacity:1;fill-rule:nonzero;stroke:none"
         id="path2504" />
      <path
         d="m 3294.87,4547.98 c 13.16,-41.63 32.35,-65.04 52.48,-166.57 20.13,-101.52 -169.74,-265.47 -201.58,-276.91 -27.46,-9.86 -117.31,2.95 -142.34,62.85 -7.02,16.81 -2.69,36.23 10.58,48.72 29.45,27.71 90.16,83.52 126.94,108.24 49.95,33.58 104.82,55.69 100.73,168.7 -2.48,68.33 14.8,106.42 28.85,125.85 5.18,7.18 16.47,3.64 16.53,-5.21 0.13,-18.93 1.57,-45.92 7.81,-65.67"
         style="fill:#fef5d5;fill-opacity:1;fill-rule:nonzero;stroke:none"
         id="path2506" />
      <g
         id="g2508">
        <g
           id="g2510"
           clip-path="url(#clipPath2514)">
          <path
             d="m 3223.05,4140.05 c -41.41,-11.88 -86.67,-7.8 -125.01,12.09 -35.89,18.62 -68.49,53.22 -66.94,96.07 0.26,7.24 -10.99,7.23 -11.25,0 -1.66,-45.54 31.6,-83.6 69.68,-104.28 41.52,-22.55 91.16,-27.74 136.51,-14.73 6.95,1.99 4,12.85 -2.99,10.85"
             style="fill:#fcd36a;fill-opacity:1;fill-rule:nonzero;stroke:none"
             id="path2516" />
          <path
             d="m 3277.94,4178.94 c -44.01,-4.85 -88.82,2.38 -128.88,21.39 -38.15,18.1 -83.89,49.88 -93.15,93.8 -1.48,7.08 -12.33,4.08 -10.84,-2.99 9.62,-45.68 55.48,-79.46 95.06,-98.96 42.61,-20.98 90.58,-29.7 137.81,-24.49 7.12,0.78 7.2,12.04 0,11.25"
             style="fill:#fcd36a;fill-opacity:1;fill-rule:nonzero;stroke:none"
             id="path2518" />
          <path
             d="m 3312.91,4247.16 c -82.1,-23.21 -170.06,8.75 -217.54,79.7 -4.01,5.99 -13.76,0.36 -9.71,-5.68 50.24,-75.08 143.16,-109.49 230.24,-84.88 6.96,1.97 4,12.83 -2.99,10.86"
             style="fill:#fcd36a;fill-opacity:1;fill-rule:nonzero;stroke:none"
             id="path2520" />
          <path
             d="m 3354.67,4306.89 c -88.7,-21.35 -185.31,9.29 -245.85,77.43 -4.82,5.42 -12.75,-2.55 -7.95,-7.96 63.19,-71.13 164.37,-102.56 256.79,-80.32 7.04,1.69 4.06,12.55 -2.99,10.85"
             style="fill:#fcd36a;fill-opacity:1;fill-rule:nonzero;stroke:none"
             id="path2522" />
          <path
             d="m 3391.99,4386.32 c -48.61,-7.83 -97.32,-9.72 -144.65,5.79 -41.86,13.72 -79.17,38.61 -108.37,71.52 -4.81,5.42 -12.75,-2.55 -7.95,-7.96 30.46,-34.33 69.68,-60.11 113.32,-74.41 49.27,-16.14 100.09,-13.94 150.65,-5.78 7.13,1.15 4.1,11.99 -3,10.84"
             style="fill:#fcd36a;fill-opacity:1;fill-rule:nonzero;stroke:none"
             id="path2524" />
          <path
             d="m 3361.9,4459.34 c -35.76,-10.89 -73.71,-13.74 -110.59,-7.26 -30.67,5.37 -66.6,15.96 -81.73,45.83 -3.28,6.46 -12.99,0.77 -9.72,-5.68 15.92,-31.41 52.47,-44.16 84.93,-50.36 39.96,-7.63 81.21,-5.22 120.1,6.62 6.91,2.11 3.96,12.97 -2.99,10.85"
             style="fill:#fcd36a;fill-opacity:1;fill-rule:nonzero;stroke:none"
             id="path2526" />
          <path
             d="m 3335.62,4538.87 c -19.57,-14.44 -43.08,-22.39 -67.4,-22.96 -11.72,-0.28 -23.41,1.08 -34.72,4.18 -4.19,1.15 -36.65,12.26 -32.15,18.35 4.3,5.83 -5.46,11.45 -9.72,5.68 -10.01,-13.58 10.72,-23.8 20.36,-28.14 13.72,-6.18 28.31,-9.8 43.31,-10.98 30.34,-2.37 61.48,6.05 86,24.16 5.77,4.25 0.16,14.02 -5.68,9.71"
             style="fill:#fcd36a;fill-opacity:1;fill-rule:nonzero;stroke:none"
             id="path2528" />
          <path
             d="m 3307.54,4591.51 c -11.98,-8.29 -26.82,-10.66 -41.02,-7.85 -7.18,1.43 -14.1,3.89 -20.62,7.2 -5.21,2.64 -13.21,6.06 -15.21,12.09 -2.26,6.84 -13.13,3.91 -10.84,-2.99 2.67,-8.06 9.39,-12.76 16.5,-16.75 8.04,-4.51 16.74,-8.12 25.75,-10.1 17.42,-3.81 36.25,-1.6 51.12,8.68 5.92,4.1 0.3,13.85 -5.68,9.72"
             style="fill:#fcd36a;fill-opacity:1;fill-rule:nonzero;stroke:none"
             id="path2530" />
        </g>
      </g>
      <path
         d="m 3294.87,4547.98 -1.78,-0.57 c 13.29,-42 32.31,-64.99 52.42,-166.36 0.98,-4.96 1.46,-10.09 1.46,-15.35 0.09,-49.9 -42.8,-112.43 -89.7,-163.45 -23.43,-25.54 -47.82,-48.25 -68.21,-65.24 -20.33,-16.97 -36.93,-28.28 -43.93,-30.74 -5.06,-1.83 -12.72,-2.9 -21.83,-2.89 -37.35,-0.06 -98.67,17.72 -118.14,64.69 -2.15,5.15 -3.18,10.56 -3.18,15.92 0,11.39 4.67,22.58 13.31,30.71 29.41,27.68 90.16,83.5 126.7,108.06 23.98,16.13 49.41,29.72 68.92,52.4 19.53,22.68 32.88,54.42 32.86,106.18 0,3.8 -0.07,7.71 -0.22,11.74 -0.16,4.42 -0.24,8.72 -0.24,12.9 0.01,59.91 15.85,93.94 28.74,111.79 v 0 c 1.57,2.15 3.68,3.04 5.85,3.05 3.72,-0.03 7.25,-2.7 7.29,-7.18 0.13,-19.03 1.55,-46.1 7.9,-66.23 l 1.78,0.57 1.79,0.57 c -6.14,19.37 -7.61,46.27 -7.72,65.12 -0.05,6.68 -5.53,10.93 -11.04,10.91 -3.25,0.01 -6.63,-1.48 -8.89,-4.62 v 0 c -13.38,-18.5 -29.46,-53.42 -29.45,-113.98 0,-4.22 0.08,-8.57 0.24,-13.04 0.15,-3.98 0.22,-7.85 0.22,-11.6 -0.02,-51.16 -13.05,-81.73 -31.95,-103.74 -18.91,-22.01 -43.96,-35.47 -68.17,-51.73 -37.01,-24.89 -97.68,-80.69 -127.18,-108.44 -9.4,-8.84 -14.5,-21.03 -14.5,-33.44 0,-5.85 1.14,-11.75 3.48,-17.36 20.75,-49.27 83.32,-66.95 121.6,-67 9.41,0 17.37,1.05 23.1,3.1 8.13,2.97 24.48,14.29 45.06,31.4 30.78,25.64 70.5,64.14 102.59,105.88 32.06,41.76 56.62,86.7 56.67,125.69 0,5.49 -0.5,10.86 -1.53,16.08 -20.15,101.67 -39.51,125.51 -52.53,166.77 l -1.79,-0.57"
         style="fill:#211816;fill-opacity:1;fill-rule:nonzero;stroke:none"
         id="path2532" />
      <path
         d="m 2729.07,4589.54 c -0.13,-2.7 -0.22,-5.41 -0.22,-8.11 0,-80.64 65.37,-146 146,-146 80.64,0 146,65.36 146,146 0,2.7 -0.09,5.41 -0.21,8.11 26.13,-32.19 41.75,-73.26 41.75,-117.93 0,-103.6 -83.98,-187.55 -187.54,-187.55 -103.55,0 -187.54,83.95 -187.54,187.55 0,44.67 15.62,85.74 41.76,117.93"
         style="fill:#fab50a;fill-opacity:1;fill-rule:nonzero;stroke:none"
         id="path2534" />
      <path
         d="m 2729.07,4589.54 -1.87,0.09 c -0.14,-2.73 -0.22,-5.46 -0.22,-8.2 0,-81.68 66.2,-147.88 147.87,-147.88 81.68,0 147.87,66.2 147.88,147.88 0,2.74 -0.09,5.47 -0.22,8.2 l -1.87,-0.09 -1.46,-1.18 c 25.88,-31.87 41.34,-72.52 41.34,-116.75 0,-51.29 -20.79,-97.69 -54.39,-131.3 -33.61,-33.6 -80.01,-54.37 -131.28,-54.37 -51.26,0 -97.67,20.77 -131.27,54.37 -33.61,33.61 -54.39,80.01 -54.39,131.3 0,44.23 15.46,84.88 41.33,116.75 l -1.45,1.18 -1.87,0.09 1.87,-0.09 -1.46,1.18 c -26.4,-32.51 -42.18,-74 -42.17,-119.11 0,-104.64 84.82,-189.42 189.41,-189.42 104.6,0 189.42,84.78 189.42,189.42 0,45.11 -15.78,86.6 -42.18,119.11 l -2.12,0.57 -1.21,-1.84 c 0.13,-2.69 0.21,-5.36 0.21,-8.02 0,-39.81 -16.12,-75.83 -42.21,-101.92 -26.08,-26.08 -62.1,-42.21 -101.91,-42.21 -39.81,0 -75.82,16.13 -101.91,42.21 -26.08,26.09 -42.21,62.11 -42.21,101.92 0,2.66 0.08,5.34 0.21,8.02 l -1.2,1.84 -2.13,-0.57 1.46,-1.18"
         style="fill:#211816;fill-opacity:1;fill-rule:nonzero;stroke:none"
         id="path2536" />
      <g
         id="g2538">
        <g
           id="g2540"
           clip-path="url(#clipPath2544)">
          <path
             d="m 2932.93,4321.36 h 116.809 v 153.059 H 2932.93 Z"
             style="fill:#fbd64d;fill-opacity:1;fill-rule:nonzero;stroke:none"
             id="path2546" />
        </g>
      </g>
    </g>
  </g>
</svg>
